<svg width="512" height="512" xmlns="http://www.w3.org/2000/svg">
 <g>
  <title>Layer 1</title>
  <g stroke="null" id="svg_14">
   <ellipse stroke="null" ry="254.7255" rx="254.7255" id="svg_10" cy="256" cx="256" fill="url(#svg_13)"/>
   <g stroke="null" id="svg_9">
    <path stroke="null" fill="#ffffff" d="m321.21623,256.00025l-130.43249,0a26.1165,26.1165 0 0 0 -26.0865,26.0865l0,78.25949a26.1165,26.1165 0 0 0 26.0865,26.0865l52.17299,0l0,26.0865l-39.12975,0l0,26.0865l104.34599,0l0,-26.0865l-39.12975,0l0,-26.0865l52.17299,0a26.1165,26.1165 0 0 0 26.0865,-26.0865l0,-78.25949a26.1165,26.1165 0 0 0 -26.0865,-26.0865zm-130.43249,104.34599l0,-78.25949l130.43249,0l0.01956,78.25949l-130.45205,0z" id="svg_1"/>
    <path stroke="#ffffff" fill="#ffffff" d="m384.10817,179.35812a130.42205,130.42205 0 0 0 -256.21636,0a97.71219,97.71219 0 0 0 10.71894,193.70007l0,-26.0865a71.66613,71.66613 0 0 1 1.60432,-142.87705l10.91068,-0.73825l1.17389,-10.87807a104.3186,104.3186 0 0 1 207.40591,0l1.17389,10.87807l10.91068,0.73825a71.66613,71.66613 0 0 1 1.5991,142.87705l0,26.0865a97.71219,97.71219 0 0 0 10.71894,-193.70007z" id="svg_2"/>
   </g>
  </g>
 </g>
 <defs>
  <linearGradient y2="1" x2="0.5" y1="0" x1="0.5" id="svg_13">
   <stop stop-opacity="0.99609" offset="0" stop-color="#3f59f2"/>
   <stop stop-opacity="0.99609" offset="1" stop-color="#9900f1"/>
  </linearGradient>
 </defs>
</svg>